<?xml version="1.0" encoding="utf-8"?>
<!-- Generator: Adobe Illustrator 27.5.0, SVG Export Plug-In . SVG Version: 6.00 Build 0)  -->
<svg version="1.1" id="Capa_1" xmlns="http://www.w3.org/2000/svg" xmlns:xlink="http://www.w3.org/1999/xlink" x="0px" y="0px"
	 viewBox="0 0 2057 2189" style="enable-background:new 0 0 2057 2189;" xml:space="preserve">
<path style="fill:#F6B124;" d="M1860.305,1086.556c-31.792-145.785-93.851-278.672-179.469-384.294
	c-58.994-72.777-129.851-135.832-210.607-187.412c-80.716-51.553-167.783-89.391-258.782-112.457c-0.216-0.055-0.43,0-0.585,0.143
	c-8.353,7.423-16.83,14.178-25.19,20.076c-3.465,2.445-7.049,4.853-10.65,7.155c-2.564,1.641-5.953,3.792-10.009,6.315
	c-2.707,1.681-5.71,3.53-8.959,5.503c-5.435,3.297-10.875,6.519-16.166,9.577c-4.109,2.377-8.207,4.702-12.185,6.911
	c-4.375,2.43-8.745,4.8-12.992,7.041c-36.38,19.216-64.841,29.957-84.59,31.917c-1.797,0.181-3.543,0.286-5.192,0.316
	c-10.524,0.159-18.01-2.686-22.252-8.657c-0.427-0.608-0.834-1.335-1.211-2.159c-0.002,0-0.058-0.148-0.058-0.151l-0.083-0.216
	c-0.392-0.902-0.724-1.78-1.015-2.697l-0.61,0.201l0.563-0.375c-4.853-15.515-5.9-53.937-2.875-105.42
	c0.01-0.178-0.056-0.354-0.181-0.482c-0.125-0.133-0.234-0.151-0.475-0.199c-16.263,0.314-32.49,1.138-48.228,2.448
	c-0.203,0.017-0.387,0.128-0.495,0.302c-0.106,0.173-0.126,0.387-0.05,0.578c16.158,40.589,28.645,78.555,33.402,101.56
	c0.319,1.535,0.598,3.005,0.854,4.433l0.296,1.782c0.156,0.942,0.299,1.859,0.425,2.749c0.078,0.555,0.156,1.105,0.221,1.641
	c0.136,1.081,0.239,2.111,0.322,3.108l0.073,0.751c0.075,1.089,0.115,2.174,0.118,3.32c0,0.231-0.005,0.447-0.012,0.663
	l-0.008,0.271c-0.02,0.741-0.06,1.44-0.128,2.089l-0.025,0.266c-0.02,0.176-0.038,0.352-0.06,0.523
	c-0.133,0.93-0.289,1.658-0.475,2.229c-1.392,4.249-4.284,7.695-8.848,10.537c-0.99,0.615-2.103,1.216-3.31,1.784
	c-1.133,0.535-2.11,0.953-3.081,1.314c-2.277,0.849-4.78,1.578-7.441,2.171c-2.305,0.515-4.689,0.937-7.084,1.256
	c-5.403,0.719-11.499,1.086-18.123,1.088h-0.041c-43.049,0-102.515-14.411-134.133-23.003c-12.271-3.337-24.496-7.572-36.34-12.587
	c-15.653-6.629-30.881-14.72-45.266-24.051c-7.865-5.104-15.859-10.896-23.755-17.211c-0.191-0.153-0.46-0.186-0.674-0.08
	c-79.454,36.996-153.482,87.991-220.03,151.568c-64.296,61.424-120.342,133.321-166.585,213.693
	c-105.312,183.04-151.935,395.831-131.278,599.172c20.126,198.105,102.683,374.313,232.462,496.16
	c43.343,40.7,93.215,75.921,148.23,104.689c137.503,71.9,295.344,113.137,456.461,119.254c13.743,0.518,27.429,0.779,41.069,0.779
	c152.038,0,297.069-32.296,421.701-94.18c196.593-97.623,333.369-282.339,385.133-520.123
	C1892.224,1379.437,1891.626,1230.198,1860.305,1086.556z"/>
<path style="fill:#ACD7C3;" d="M1007.218,281.189c-4.134,15.885-8.705,55.614-11.117,96.61c-2.549,43.371-2.164,78.979,1.055,97.696
	c0.03,0.176,0.128,0.329,0.277,0.427c0.106,0.07,0.231,0.108,0.357,0.108c0.048,0,0.095-0.005,0.14-0.015
	c80.63-18.166,153.825-75.247,206.099-160.733c48.899-79.962,73.036-174.302,66.226-258.83c-0.028-0.335-0.307-0.591-0.641-0.591
	h-0.013c-2.518,0.053-5.038,0.435-6.953,0.764c-58.082,9.964-115.143,37.089-160.677,76.376
	C1054.564,173.909,1021.798,225.151,1007.218,281.189z"/>
<path style="fill:#ACD7C3;" d="M695.766,209.621c-2.887,1.518-6.192,1.834-9.315,0.859c-12.105-3.752-25.2-5.654-38.92-5.654
	c-0.04-0.005-0.076,0.003-0.113,0c-17.384,0-29.844,3.184-29.882,3.202c-1.824,0.473-3.742,0.503-5.712,0.073
	c-0.259-0.05-0.505,0.043-0.656,0.246c-0.151,0.206-0.168,0.48-0.043,0.701c38.599,67.849,92.843,128.62,156.868,175.74
	c63.693,46.879,137.644,80.693,213.856,97.791c0.048,0.01,0.093,0.015,0.141,0.015c0.166,0,0.329-0.065,0.45-0.183
	c0.155-0.153,0.223-0.377,0.181-0.591c-4.772-23.074-17.284-61.122-33.467-101.777c-12.791-32.12-25.24-59.293-32.492-70.913
	c-30.653-49.123-77.23-88.239-134.694-113.118c-55.189-23.888-117.749-32.718-176.152-24.893c-3.993,0.538-8.544,1.392-12.044,3.664
	c-0.269,0.179-0.37,0.528-0.229,0.819c2.44,5.074,5.144,10.446,8.268,16.427c0.115,0.221,0.319,0.359,0.61,0.344
	c0.254-0.018,0.473-0.181,0.563-0.417c1.39-3.719,4.486-6.543,8.333-7.569c2.591-0.666,16.515-3.995,36.181-4.008
	c16.184,0.003,31.724,2.274,46.188,6.752c3.119,0.965,5.675,3.089,7.197,5.976c1.52,2.89,1.827,6.197,0.859,9.315
	C700.778,205.542,698.654,208.098,695.766,209.621z"/>
<path style="fill:#69BFAA;" d="M932.701,479.684c-67.764-5.903-119.505-26.057-150.98-41.926
	c-17.691-8.918-30.924-17.43-38.911-22.999c-4.485-3.131-7.742-5.619-9.685-7.157c-1.056-0.834-1.832-1.47-2.32-1.877l-0.618-0.526
	c-5.589-4.92-14.143-4.372-19.061,1.212c-2.385,2.706-3.573,6.181-3.347,9.782c0.228,3.602,1.844,6.898,4.554,9.283
	c0.819,0.721,20.513,17.892,57.222,36.407c33.58,16.935,88.737,38.44,160.8,44.715c0.4,0.035,0.799,0.053,1.199,0.053
	c3.166,0,6.204-1.103,8.662-3.164c2.762-2.322,4.458-5.579,4.769-9.175c0.314-3.593-0.792-7.096-3.111-9.861
	C939.555,481.692,936.297,479.995,932.701,479.684z"/>
<path style="fill:#69BFAA;" d="M1240.248,327.095c-6.536-3.565-14.761-1.163-18.337,5.373c-6.31,11.572-15.748,23.707-28.054,36.068
	c-17.709,17.827-38.174,32.857-52.222,42.328c-7.994,5.393-14.784,9.582-19.068,12.145c-2.342,1.402-4.191,2.47-5.44,3.184
	c-0.623,0.355-1.096,0.618-1.405,0.792l-0.42,0.231c-6.539,3.569-8.956,11.791-5.39,18.33c1.729,3.169,4.586,5.473,8.049,6.491
	c1.256,0.37,2.536,0.555,3.812,0.555c2.244-0.003,4.475-0.568,6.539-1.696c2.231-1.228,22.486-12.532,46.14-30.2
	c14.581-10.896,27.557-22.036,38.569-33.111c14.273-14.374,24.938-28.165,32.6-42.155c1.731-3.166,2.125-6.818,1.111-10.28
	C1245.716,331.687,1243.414,328.827,1240.248,327.095z"/>
<path style="fill:#69BFAA;" d="M1202.742,93.219c-1.188,0.367-12.044,3.807-27.197,11.097
	c-20.886,10.067-39.436,22.255-55.136,36.226c-5.561,4.953-6.056,13.51-1.103,19.074c2.4,2.696,5.707,4.294,9.308,4.503
	c0.267,0.015,0.533,0.023,0.797,0.023c3.314,0,6.473-1.199,8.969-3.423c17.224-15.352,36.091-25.906,48.884-32.055
	c7.273-3.501,13.351-5.961,17.168-7.408c2.076-0.787,3.697-1.357,4.775-1.724c0.53-0.181,0.927-0.312,1.184-0.392l0.299-0.098
	c7.112-2.189,11.125-9.758,8.944-16.872C1217.44,95.049,1209.851,91.018,1202.742,93.219z"/>
<path style="fill:#69BFAA;" d="M694.068,185.901c-14.588-4.514-30.256-6.805-46.57-6.808c-19.822,0.013-33.885,3.375-36.563,4.066
	c-4.197,1.118-7.619,4.239-9.157,8.345c-0.99,2.654-1.136,5.486-0.414,8.187c1.296,4.868,5.199,8.569,10.185,9.665
	c2.176,0.478,4.299,0.45,6.315-0.088c0.005,0,0.01,0,0.01,0c0.003,0-0.003,0.003,0,0.003c0,0,0.003,0,0.007-0.003
	c0.113-0.032,12.326-3.156,29.535-3.156h0.116c13.592,0,26.557,1.883,38.539,5.599c1.322,0.407,2.671,0.611,4.015,0.611
	c2.164,0,4.312-0.525,6.28-1.563c3.194-1.684,5.539-4.508,6.609-7.953c1.068-3.448,0.729-7.104-0.952-10.296
	C700.338,189.316,697.513,186.972,694.068,185.901z"/>
<path style="fill:#FCC047;" d="M1472.167,634.579c-4.375-25.858-17.121-48.764-35.892-64.492
	c-45.869-38.44-108.358-26.552-147.007,0.769c-33.319,23.549-61.803,67.789-41.825,121.337c3.91,10.474,9.36,20.262,16.206,29.087
	c17.575,22.664,43.881,38.393,74.072,44.288c8.416,1.641,16.814,2.453,25.079,2.453c21.604,0,42.301-5.546,59.976-16.294
	C1460.313,728.897,1480.163,681.819,1472.167,634.579z"/>
<path style="fill:#FCC047;" d="M1369.513,816.33c-32.017-26.833-75.629-18.536-102.596,0.525
	c-23.257,16.437-43.14,47.324-29.19,84.711c2.731,7.318,6.536,14.148,11.311,20.302c16.251,20.953,42.971,32.479,69.234,32.479
	c14.723,0,29.306-3.621,41.817-11.23c26.205-15.937,40.061-48.799,34.483-81.769C1391.516,843.299,1382.618,827.309,1369.513,816.33
	z"/>
<path style="fill:#FCC047;" d="M1642.571,793.774c-3.752-22.177-14.683-41.818-30.783-55.307
	c-39.335-32.965-92.921-22.77-126.061,0.653c-28.575,20.194-53.003,58.137-35.867,104.061c0,0.002,0,0.002,0,0.002
	c3.358,8.991,8.034,17.385,13.897,24.943c19.968,25.748,52.799,39.908,85.073,39.908c18.091,0,36.008-4.45,51.382-13.798
	C1632.406,874.655,1649.43,834.282,1642.571,793.774z"/>
<path style="fill:#FCC047;" d="M420.756,1673.667c43.119-8.423,78.039-45.72,86.895-92.803c4.848-25.783,0.817-51.681-11.348-72.936
	c-29.723-51.938-92.469-62.406-138.179-50.169c-39.413,10.554-81.452,42.198-81.246,99.352c0.04,11.183,1.766,22.25,5.131,32.9
	c8.642,27.346,27.876,51.214,54.162,67.191c19.99,12.157,42.016,18.47,63.693,18.47
	C406.892,1675.672,413.883,1675.008,420.756,1673.667z"/>
<path style="fill:#FCC047;" d="M452.416,1696.494c-28.999,7.77-59.936,31.06-59.783,73.122c0.027,8.232,1.296,16.379,3.774,24.214
	c11.602,36.714,49.372,62.975,87.083,62.975c5.021,0,10.042-0.468,14.997-1.433c31.731-6.197,57.428-33.633,63.947-68.281
	c3.566-18.973,0.598-38.031-8.355-53.672C532.207,1695.203,486.052,1687.498,452.416,1696.494z"/>
<path style="fill:#EF8B06;" d="M1806.272,1147.628c-7.252,1.699-11.778,8.976-10.067,16.314
	c0.513,2.242,12.514,55.802,12.512,140.363c0,79.233-10.976,201.884-63.265,336.241c-1.309,3.357-1.229,7.031,0.223,10.333
	c1.453,3.302,4.104,5.845,7.466,7.152c1.606,0.628,3.257,0.92,4.885,0.92c5.408,0,10.527-3.272,12.607-8.609
	c53.805-138.272,65.1-264.497,65.103-346.037c-0.005-87.918-12.69-144.203-13.238-146.585
	C1820.804,1150.468,1813.517,1145.949,1806.272,1147.628z"/>
<path style="fill:#EF8B06;" d="M445.686,679.636l-0.047,0.043c-2.495,2.413-25.132,24.574-51.395,59.27
	c-36.729,48.595-62.069,96.693-75.32,142.951c-0.993,3.468-0.573,7.114,1.181,10.27c1.751,3.154,4.629,5.438,8.099,6.428
	c1.231,0.352,2.485,0.528,3.729,0.528c2.266,0,4.506-0.576,6.541-1.707c3.154-1.754,5.438-4.629,6.428-8.099
	c15.296-53.682,46.99-102.536,70.885-134.068c13.595-17.965,26.157-32.336,34.301-41.23c3.659-4.001,7.21-7.753,10.552-11.152
	c1.239-1.261,2.199-2.217,2.832-2.842l0.907-0.887c5.378-5.154,5.558-13.721,0.407-19.101
	C459.628,674.663,451.062,674.482,445.686,679.636z"/>
<path style="fill:#EF8B06;" d="M1075.721,2068.675c-7.041,0.332-14.419,0.503-21.933,0.503h-0.098
	c-54.071,0-110.914-8.705-149.085-16.012c-21.636-4.137-39.739-8.283-51.116-11.032c-5.089-1.232-9.941-2.453-14.422-3.624
	c-1.661-0.437-2.928-0.774-3.774-1.005l-1.237-0.332c-3.478-0.97-7.122-0.527-10.265,1.241c-3.141,1.775-5.405,4.664-6.375,8.142
	c-2,7.172,2.209,14.64,9.384,16.641c0,0,0.093,0.025,0.095,0.025c3.159,0.869,32.03,8.715,72.637,16.485
	c57.26,10.931,109.16,16.48,154.257,16.49c7.903,0,15.711-0.181,23.204-0.533c3.604-0.171,6.926-1.734,9.356-4.403
	c2.427-2.669,3.671-6.122,3.503-9.725c-0.171-3.609-1.734-6.931-4.403-9.358C1082.779,2069.751,1079.377,2068.54,1075.721,2068.675z
	"/>
<path style="fill:#EF8B06;" d="M1200.658,1628.967c-3.299-1.468-6.971-1.558-10.336-0.252c-3.367,1.297-6.026,3.825-7.488,7.122
	c-1.463,3.302-1.553,6.971-0.256,10.338c8.953,23.219,13.682,48.741,13.68,73.81c0,8.177-0.495,16.394-1.468,24.426
	c-0.894,7.393,4.39,14.138,11.783,15.032c0.556,0.07,1.109,0.1,1.661,0.1c3,0,5.901-0.995,8.3-2.875
	c2.84-2.226,4.644-5.428,5.079-9.011c1.103-9.122,1.664-18.435,1.664-27.673c0-28.763-5.212-56.868-15.49-83.53
	C1206.489,1633.087,1203.958,1630.429,1200.658,1628.967z"/>
<path style="fill:#EF8B06;" d="M1257.634,1658.936c-2.824-2.246-6.365-3.267-9.938-2.85c-7.401,0.844-12.738,7.549-11.894,14.957
	c1.327,11.63,2.099,23.476,2.294,35.207c0.061,3.608,1.523,6.981,4.117,9.489c2.538,2.453,5.862,3.794,9.383,3.794h0.234
	c7.448-0.125,13.407-6.287,13.284-13.731c-0.211-12.594-1.041-25.32-2.468-37.82
	C1262.239,1664.394,1260.459,1661.182,1257.634,1658.936z"/>
<path style="fill:#9CD0B7;" d="M1283.224,62.712c-0.583-0.922-1.209-1.754-1.859-2.475c-0.731-0.804-1.523-1.495-2.259-1.978
	c-0.04-0.04-0.088-0.075-0.141-0.105c-0.603-0.407-1.267-0.759-2.018-1.078c-0.138-0.061-0.279-0.108-0.42-0.153l-0.178-0.061
	c-0.543-0.201-1.091-0.384-1.648-0.515c-0.146-0.035-0.292-0.063-0.593-0.12c-0.608-0.12-1.224-0.214-1.844-0.271l-0.387-0.033
	c-0.601-0.045-1.191-0.065-1.764-0.065c-0.355,0-0.744-0.043-0.975,0.219c-0.118,0.131-0.179,0.304-0.163,0.483
	c13.366,165.884-94.778,378.431-271.332,418.2c-0.335,0.076-0.551,0.4-0.492,0.737c0.54,3.151,1.173,5.906,1.887,8.182
	c0,0.002,0.053,0.196,0.053,0.196c0.294,0.932,0.628,1.824,1.106,2.938c0.032,0.093,0.068,0.184,0.1,0.256
	c0.399,0.879,0.847,1.676,1.299,2.319l0.578-0.284l-0.49,0.429c4.312,6.049,11.798,9.112,22.262,9.112
	c0.332,0,0.671-0.005,1.01-0.01c1.681-0.03,3.463-0.138,5.295-0.322c19.915-1.978,48.535-12.766,85.066-32.063
	c4.252-2.244,8.63-4.618,13.012-7.051c3.986-2.211,8.092-4.541,12.205-6.921c5.3-3.063,10.745-6.293,16.191-9.592
	c3.254-1.978,6.262-3.827,8.969-5.513c4.061-2.523,7.456-4.679,10.024-6.32c3.616-2.312,7.217-4.732,10.7-7.19
	c11.961-8.436,23.634-18.156,34.691-28.889c3.078-2.985,6.144-6.093,9.107-9.232c9.471-10.039,18.294-20.79,26.223-31.957
	c1.528-2.156,3.021-4.332,4.493-6.524c4.789-7.144,9.325-14.592,13.477-22.139c3.74-6.795,6.883-12.987,9.617-18.932
	c5.393-11.743,10.009-23.893,13.726-36.113c4.953-16.284,8.476-33.241,10.474-50.4c0.953-8.179,1.568-16.618,1.827-25.081
	l0.03-0.706c1.219-43.215-7.104-86.601-24.069-125.471C1285.257,66.494,1284.36,64.506,1283.224,62.712z"/>
<path style="fill:#9CD0B7;" d="M984.76,495.684c-0.083-1.01-0.191-2.058-0.327-3.156c-0.065-0.543-0.143-1.103-0.224-1.664
	c-0.128-0.9-0.271-1.827-0.427-2.779l-0.085-0.518c-0.068-0.419-0.138-0.842-0.216-1.276c-0.256-1.44-0.54-2.925-0.859-4.471
	c-0.052-0.246-0.243-0.442-0.49-0.498c-156.357-35.076-291.174-134.55-369.885-272.913c-0.091-0.158-0.243-0.269-0.422-0.309
	c-4.513-0.993-8.046-4.34-9.22-8.74c-0.649-2.443-0.518-5.003,0.379-7.403c0.063-0.171,0.053-0.362-0.032-0.525
	c-3.169-6.061-5.873-11.437-8.27-16.432c-0.08-0.166-0.229-0.291-0.407-0.339c-0.178-0.055-0.37-0.023-0.522,0.078
	c-1.237,0.802-2.247,1.702-3.088,2.755c-0.628,0.786-1.176,1.683-1.628,2.664c-0.412,0.887-0.751,1.842-1.038,2.92
	c-0.548,2.04-0.812,4.211-1.018,6.086c-0.457,4.231-0.827,8.551-1.098,12.841c-0.264,4.27-0.437,8.602-0.513,12.876
	c-0.528,29.984,3.583,59.936,12.218,89.029c1.208,4.076,2.531,8.204,3.93,12.271c2.791,8.102,5.97,16.168,9.448,23.971
	c3.485,7.825,7.361,15.58,11.514,23.049c4.176,7.501,8.733,14.879,13.537,21.923c2.384,3.497,4.91,7.026,7.504,10.481
	c14.542,19.357,31.773,37.058,51.216,52.606c7.931,6.342,15.957,12.158,23.861,17.286c14.444,9.371,29.741,17.498,45.462,24.157
	c11.896,5.036,24.179,9.29,36.505,12.642c31.681,8.609,91.27,23.049,134.47,23.049h0.041c6.682-0.002,12.839-0.372,18.294-1.098
	c2.433-0.327,4.853-0.756,7.195-1.277c2.716-0.606,5.277-1.352,7.609-2.221c1.005-0.377,2.015-0.807,3.179-1.355
	c1.251-0.591,2.41-1.216,3.44-1.859c4.765-2.965,7.923-6.742,9.391-11.228c0.214-0.65,0.38-1.43,0.525-2.445
	c0.028-0.186,0.048-0.382,0.068-0.578l0.028-0.259c0.067-0.683,0.113-1.412,0.133-2.191l0.008-0.266
	c0.005-0.231,0.012-0.458,0.012-0.704c-0.003-1.176-0.043-2.292-0.123-3.408L984.76,495.684z"/>
<path style="fill:#D33022;" d="M1410.449,1222.73c-38.682,0-70.153,31.472-70.153,70.156c0,38.679,31.472,70.151,70.153,70.151
	c38.682,0,70.154-31.472,70.154-70.151C1480.603,1254.202,1449.13,1222.73,1410.449,1222.73z"/>
<path style="fill:#D33022;" d="M645.965,1363.037c38.684,0,70.156-31.472,70.156-70.151c0-38.684-31.472-70.156-70.156-70.156
	c-38.682,0-70.154,31.472-70.154,70.156C575.811,1331.565,607.284,1363.037,645.965,1363.037z"/>
<path style="fill:#4E221F;" d="M1322.287,1107.079c-23.747,0-43.066,26.712-43.066,59.541c0,32.834,19.319,59.547,43.066,59.547
	c23.747,0,43.067-26.712,43.067-59.547C1365.354,1133.792,1346.035,1107.079,1322.287,1107.079z"/>
<path style="fill:#4E221F;" d="M734.126,1219.579c23.747,0,43.067-26.713,43.067-59.542c0-32.834-19.319-59.547-43.067-59.547
	c-23.747,0-43.066,26.713-43.066,59.547C691.06,1192.866,710.379,1219.579,734.126,1219.579z"/>
<path style="fill:#4E221F;" d="M1180.889,1087.986c-1.756-1.379-3.93-1.975-6.164-1.724c-2.219,0.269-4.199,1.384-5.576,3.143
	c-1.38,1.757-1.99,3.945-1.721,6.164c0.935,7.73,1.407,15.636,1.407,23.491c0.005,44.444-14.778,86.159-41.624,117.47
	c-26.557,30.939-61.717,47.982-99.002,47.992c-37.287-0.01-72.448-17.053-99.005-47.992c-26.846-31.311-41.629-73.026-41.624-117.47
	c0-7.433,0.425-14.922,1.262-22.244c0.254-2.222-0.372-4.405-1.762-6.154c-1.39-1.749-3.378-2.852-5.596-3.106
	c-2.219-0.276-4.408,0.372-6.154,1.762c-1.749,1.392-2.852,3.38-3.104,5.599c-0.909,7.946-1.372,16.068-1.372,24.144
	c0.008,48.419,16.221,94.004,45.653,128.356c29.721,34.714,69.377,53.832,111.67,53.832h0.065
	c42.288,0,81.949-19.118,111.667-53.832c29.432-34.352,45.645-79.937,45.653-128.356c0-8.529-0.515-17.108-1.53-25.499
	C1183.764,1091.346,1182.648,1089.363,1180.889,1087.986z"/>
</svg>
