<?xml version="1.0" encoding="utf-8"?>
<!-- Generator: Adobe Illustrator 27.5.0, SVG Export Plug-In . SVG Version: 6.00 Build 0)  -->
<svg version="1.1" id="Capa_1" xmlns="http://www.w3.org/2000/svg" xmlns:xlink="http://www.w3.org/1999/xlink" x="0px" y="0px"
	 viewBox="0 0 2122 2122" style="enable-background:new 0 0 2122 2122;" xml:space="preserve">
<g>
	<polygon style="fill:#AF5E17;" points="1462.518,1323.762 1462.518,1409.682 1376.494,1409.682 1376.494,1145.051 
		742.595,1145.051 742.595,1409.682 658.799,1409.682 658.799,1323.762 357.292,1323.762 357.292,1851.944 1764.026,1851.944 
		1764.026,1323.762 	"/>
	<path style="fill:#FDC734;" d="M733.557,860.75c9.018-16.975,20.234-32.794,33.228-46.943
		c37.854-41.218,92.928-76.419,150.406-59.742c33.944,9.849,48.027,43.751,31.284,74.326
		c-14.833,27.089-42.904,43.932-70.338,58.117c-22.553,11.661-44.626,23.145-62.697,38.93c-6.731,5.88-12.901,12.365-18.341,19.671
		c38.275,7.462,84.826-14.341,121.896-35.267c32.305-18.236,64.146-43.064,100.18-53.401c41.637-11.942,69.44,11.074,94.848,41.154
		c20.719,24.529,40.828,52.149,71.839,64.244c43.951,17.142,90.309-9.152,121.283-39.539c0.726-0.711,1.442-1.425,2.149-2.146
		c21.924-22.294,35.688-48.687,41.932-76.146c6.426-28.324,4.838-57.797-4.042-85.15l-0.017-0.056
		c-48.799-34.86-104.226-58.989-157.05-87.396c-38.75-20.843-76.889-44.821-108.122-75.454c-6.75,3.025-14.212,4.746-22.09,4.746
		c-7.876,0-15.337-1.72-22.087-4.746c-31.233,30.633-69.372,54.611-108.124,75.454c-53.695,28.877-110.136,53.333-159.51,89.13
		c-1.897,1.376-3.598,2.675-5.469,4.097l-0.131,0.198C744.434,794.343,731.311,827.429,733.557,860.75z"/>
	<path style="fill:#F8AB24;" d="M1454.036,905.799c-12.21-59.856-55.032-109.462-104.406-145.262
		c-0.814-0.59-1.644-1.15-2.463-1.735l0.017,0.056c8.88,27.352,10.468,56.826,4.042,85.15
		c-6.229,27.457-19.986,53.832-41.932,76.146c-0.707,0.721-1.423,1.435-2.149,2.146c-30.974,30.387-77.332,56.682-121.283,39.539
		c-31.011-12.095-51.121-39.715-71.839-64.244c-25.408-30.08-53.211-53.096-94.848-41.154
		c-36.034,10.336-67.875,35.164-100.18,53.401c-37.07,20.925-83.62,42.729-121.896,35.267c-5.578,7.493-10.39,15.849-14.224,25.335
		c-8.103,20.053-7.722,54.714-39.732,47.103c-13.464-3.201-21.871-16.134-26.699-28.243c-9.22-23.133-8.324-49.201-3.106-73.552
		c4.115-19.191,11.023-37.698,20.219-55.004c-2.246-33.32,10.877-66.407,31.026-95.917l0.131-0.198
		c-2.882,2.173-5.737,4.395-8.56,6.663l-0.302,0.238c-2.711,2.183-5.396,4.409-8.046,6.677l-0.687,0.587
		c-2.526,2.173-5.018,4.385-7.479,6.633l-1.045,0.96c-2.334,2.151-4.636,4.336-6.901,6.555c-0.465,0.456-0.923,0.911-1.386,1.369
		c-2.141,2.121-4.248,4.273-6.324,6.455c-0.56,0.59-1.111,1.186-1.666,1.78c-1.951,2.088-3.873,4.197-5.756,6.339
		c-0.646,0.733-1.277,1.476-1.912,2.215c-1.764,2.049-3.506,4.112-5.203,6.209c-0.711,0.875-1.398,1.766-2.095,2.651
		c-1.581,2-3.145,4.015-4.66,6.058c-0.762,1.028-1.496,2.076-2.244,3.113c-1.398,1.952-2.789,3.905-4.129,5.893
		c-0.797,1.184-1.557,2.39-2.331,3.588c-1.223,1.886-2.444,3.774-3.606,5.691c-0.821,1.354-1.588,2.731-2.38,4.099
		c-1.05,1.82-2.11,3.635-3.104,5.482c-0.819,1.515-1.571,3.06-2.351,4.592c-0.887,1.747-1.793,3.483-2.629,5.254
		c-0.809,1.713-1.539,3.459-2.299,5.196c-0.716,1.637-1.464,3.262-2.136,4.921c-0.799,1.971-1.506,3.976-2.237,5.973
		c-0.538,1.471-1.12,2.923-1.624,4.409c-0.807,2.39-1.508,4.818-2.217,7.245c-0.334,1.138-0.718,2.254-1.028,3.398
		c-0.977,3.601-1.852,7.238-2.602,10.918c-10.227,50.146,3.047,102.238,30.801,145.579c12.616,19.7,28.224,37.59,45.975,52.67
		h634.708C1434.066,1055.794,1468.915,978.74,1454.036,905.799z"/>
	<path style="fill:#FDC734;" d="M1462.375,1170.713c17.135,43.724,56.132,24.601,83.919,6.723
		c15.376-9.89,30.528-23.359,47.676-28.964c19.817-6.478,33.047,6.007,45.14,22.324c9.859,13.303,19.43,28.285,34.187,34.845
		c20.916,9.298,42.979-4.965,57.72-21.447c22.073-24.684,27.506-58.974,19.052-88.655c-23.22-18.909-49.608-32.027-74.745-47.435
		c-19.976-12.246-39.608-26.494-55.089-45.16c-2.56,0.48-5.191,0.76-7.893,0.76c-2.078,0-4.108-0.2-6.108-0.49
		c-15.446,18.529-34.972,32.704-54.847,44.889c-25.554,15.664-52.414,28.928-75.912,48.346c-0.902,0.745-1.771,1.554-2.66,2.324
		C1459.695,1120.671,1452.769,1146.201,1462.375,1170.713z"/>
	<path style="fill:#F8AB24;" d="M1802.498,1197.616c0.248-7.457-0.249-14.955-1.576-22.373c-5.81-32.468-26.19-59.374-49.688-78.794
		l-1.171-0.94l0.007,0.029c8.453,29.681,3.021,63.971-19.052,88.655c-14.74,16.482-36.804,30.745-57.72,21.447
		c-14.758-6.561-24.329-21.542-34.187-34.845c-12.092-16.317-25.323-28.802-45.14-22.324c-17.148,5.605-32.3,19.074-47.676,28.964
		c-27.788,17.878-66.784,37.001-83.919-6.723c-9.605-24.512-2.68-50.042,10.441-71.939l0.058-0.103
		c-1.362,1.172-2.712,2.368-4.049,3.589l-0.19,0.175c-1.274,1.169-2.533,2.361-3.781,3.576l-0.38,0.371
		c-1.181,1.16-2.348,2.339-3.498,3.537l-0.572,0.597c-1.084,1.14-2.156,2.3-3.211,3.476l-0.735,0.829
		c-0.994,1.125-1.976,2.266-2.938,3.42l-0.865,1.05c-0.906,1.108-1.801,2.226-2.678,3.362l-0.967,1.276
		c-0.819,1.084-1.627,2.178-2.417,3.286c-0.363,0.509-0.714,1.026-1.069,1.54c-0.728,1.055-1.45,2.112-2.149,3.186
		c-0.387,0.594-0.758,1.196-1.135,1.796c-0.644,1.023-1.284,2.051-1.903,3.094c-0.4,0.677-0.779,1.367-1.17,2.051
		c-0.563,0.991-1.125,1.983-1.661,2.989c-0.407,0.767-0.789,1.547-1.181,2.324c-0.483,0.955-0.972,1.905-1.43,2.874
		c-0.402,0.85-0.775,1.718-1.157,2.577c-0.41,0.924-0.831,1.842-1.219,2.775c-0.39,0.945-0.743,1.905-1.11,2.86
		c-0.336,0.877-0.687,1.747-1.001,2.634c-0.375,1.052-0.707,2.126-1.05,3.194c-0.263,0.819-0.548,1.625-0.792,2.451
		c-0.365,1.233-0.68,2.485-1.003,3.734c-0.176,0.682-0.378,1.352-0.541,2.039c-0.463,1.951-0.877,3.92-1.235,5.912
		c-1.328,7.418-1.822,14.916-1.574,22.373c0.996,29.832,13.91,59.033,33.169,80.075c1.6,1.749,3.245,3.442,4.931,5.072l0.002-0.005
		h302.087c1.683-1.63,3.325-3.32,4.923-5.067C1788.586,1256.649,1801.502,1227.448,1802.498,1197.616z"/>
	<path style="fill:#FDC734;" d="M390.301,1184.193c14.74,16.482,36.803,30.745,57.719,21.447
		c14.758-6.561,24.329-21.542,34.187-34.845c12.093-16.317,25.323-28.802,45.14-22.324c17.147,5.605,32.299,19.074,47.676,28.964
		c27.788,17.878,66.785,37.001,83.919-6.723c9.605-24.512,2.68-50.042-10.438-71.939c-0.891-0.77-1.762-1.579-2.663-2.324
		c-23.496-19.418-50.358-32.682-75.912-48.346c-19.876-12.185-39.401-26.361-54.848-44.889c-2,0.29-4.027,0.49-6.107,0.49
		c-2.699,0-5.333-0.28-7.893-0.76c-15.481,18.666-35.113,32.914-55.088,45.16c-25.135,15.408-51.525,28.526-74.746,47.435
		C362.795,1125.219,368.228,1159.509,390.301,1184.193z"/>
	<path style="fill:#F8AB24;" d="M659.011,1282.759c1.683-1.63,3.325-3.32,4.923-5.067c19.26-21.043,32.176-50.244,33.172-80.075
		c0.248-7.457-0.249-14.955-1.577-22.373c-0.355-1.993-0.77-3.961-1.235-5.912c-0.163-0.687-0.363-1.357-0.541-2.039
		c-0.322-1.249-0.636-2.501-1.001-3.734c-0.246-0.826-0.529-1.632-0.792-2.451c-0.346-1.067-0.677-2.141-1.05-3.194
		c-0.317-0.887-0.667-1.757-1.004-2.634c-0.366-0.955-0.721-1.915-1.111-2.86c-0.387-0.933-0.809-1.851-1.218-2.775
		c-0.383-0.859-0.755-1.727-1.157-2.577c-0.458-0.969-0.945-1.919-1.428-2.874c-0.392-0.777-0.777-1.557-1.184-2.324
		c-0.536-1.006-1.099-1.998-1.661-2.989c-0.387-0.684-0.77-1.374-1.169-2.051c-0.616-1.043-1.259-2.071-1.902-3.094
		c-0.378-0.6-0.748-1.201-1.133-1.796c-0.699-1.074-1.422-2.131-2.151-3.186c-0.356-0.514-0.706-1.03-1.067-1.54
		c-0.789-1.108-1.598-2.202-2.419-3.286l-0.965-1.276c-0.877-1.135-1.774-2.254-2.68-3.362l-0.863-1.05
		c-0.964-1.154-1.944-2.295-2.94-3.42l-0.736-0.829c-1.055-1.176-2.124-2.336-3.21-3.476l-0.57-0.597
		c-1.152-1.198-2.319-2.377-3.501-3.537l-0.38-0.371c-1.245-1.215-2.507-2.407-3.781-3.576l-0.19-0.175
		c-1.335-1.22-2.685-2.417-4.049-3.589l0.061,0.103c13.118,21.897,20.044,47.427,10.438,71.939
		c-17.135,43.724-56.131,24.601-83.919,6.723c-15.376-9.89-30.528-23.359-47.676-28.964c-19.817-6.478-33.047,6.007-45.14,22.324
		c-9.858,13.303-19.43,28.285-34.187,34.845c-20.916,9.298-42.979-4.965-57.719-21.447c-22.073-24.684-27.506-58.974-19.053-88.655
		l0.007-0.029l-1.172,0.94c-23.498,19.42-43.878,46.327-49.688,78.794c-1.328,7.418-1.822,14.916-1.574,22.373
		c0.996,29.832,13.91,59.033,33.17,80.075c1.603,1.751,3.249,3.447,4.938,5.081l0.01-0.014H659.011z"/>
	<path style="fill:#EB7424;" d="M1071.764,493.797l-8.268-140.811c-0.765,0.022-1.513,0.115-2.282,0.115
		c-0.782,0-1.54-0.095-2.314-0.117l-8.241,140.314c3.011-0.519,6.088-0.845,9.247-0.845
		C1063.986,492.453,1067.944,492.942,1071.764,493.797z"/>
	<path style="fill:#FFFFFF;" d="M1055.269,1271.294c0-35.047-28.677-63.724-63.724-63.724c-35.048,0-63.725,28.677-63.725,63.724
		v110.426h127.449V1271.294z"/>
	<path style="fill:#FFFFFF;" d="M916.977,1271.294c0-35.047-28.677-63.724-63.725-63.724c-35.047,0-63.724,28.677-63.724,63.724
		v110.426h127.449V1271.294z"/>
	<path style="fill:#FFFFFF;" d="M1192.957,1271.294c0-35.047-28.677-63.724-63.724-63.724s-63.725,28.677-63.725,63.724v110.426
		h127.449V1271.294z"/>
	<path style="fill:#FFFFFF;" d="M1268.896,1207.57c-35.05,0-63.724,28.677-63.724,63.724v110.426h127.449v-110.426
		C1332.621,1236.247,1303.943,1207.57,1268.896,1207.57z"/>
	<path style="fill:#FFFFFF;" d="M878.4,1423.25c-9.715,17.199-35.335,50.85-87.734,52.448v91.693v109.459v91.693
		c52.399,1.598,78.019,35.25,87.734,52.448c9.715-17.199,35.335-50.85,87.737-52.448v-91.693v-109.459v-91.693
		C913.735,1474.1,888.115,1440.449,878.4,1423.25z"/>
	<path style="fill:#FFFFFF;" d="M1060.997,1423.25c-9.715,17.199-35.335,50.85-87.737,52.448v91.693v109.459v91.693
		c52.402,1.598,78.022,35.25,87.737,52.448c9.715-17.199,35.335-50.85,87.734-52.448v-91.693v-109.459v-91.693
		C1096.332,1474.1,1070.711,1440.449,1060.997,1423.25z"/>
	<path style="fill:#FFFFFF;" d="M1243.591,1423.25c-9.715,17.199-35.335,50.85-87.735,52.448v91.693v109.459v91.693
		c52.4,1.598,78.02,35.25,87.735,52.448c9.715-17.199,35.335-50.85,87.737-52.448v-91.693v-109.459v-91.693
		C1278.926,1474.1,1253.305,1440.449,1243.591,1423.25z"/>
	<path style="fill:#F8AB24;" d="M1071.764,493.797c-3.82-0.855-7.778-1.345-11.859-1.345c-3.16,0-6.236,0.326-9.247,0.845
		c-25.476,4.397-44.874,26.546-44.874,53.276c0,22.015,13.164,40.924,32.034,49.379c6.75,3.025,14.212,4.746,22.087,4.746
		c7.878,0,15.34-1.72,22.09-4.746c18.87-8.455,32.034-27.362,32.034-49.379C1114.029,520.762,1095.944,499.208,1071.764,493.797z"/>
	<path style="fill:#FFFFFF;" d="M1666.404,1431.085c0-34.638-28.341-62.979-62.979-62.979c-34.638,0-62.982,28.341-62.982,62.979
		v109.14h125.961V1431.085z"/>
	<path style="fill:#FFFFFF;" d="M1666.404,1702.902c0-34.641-28.341-62.982-62.979-62.982c-34.638,0-62.982,28.341-62.982,62.982
		v109.138h125.961V1702.902z"/>
	<path style="fill:#F8AB24;" d="M1621.649,919.799c-2.999-0.672-6.105-1.055-9.306-1.055c-2.48,0-4.894,0.256-7.257,0.665
		c-19.998,3.449-35.223,20.833-35.223,41.815c0,21.381,15.813,39.023,36.372,41.99c2,0.29,4.03,0.49,6.108,0.49
		c2.702,0,5.332-0.28,7.893-0.76c19.683-3.705,34.587-20.959,34.587-41.72C1654.823,940.964,1640.628,924.048,1621.649,919.799z"/>
	<path style="fill:#FFFFFF;" d="M1640.101,983.921c4.092-4.994,6.926-11.045,7.922-17.438c0.639-4.093,0.541-8.431-1.208-12.187
		c-0.916-1.966-2.434-4.034-4.699-4.439c-5.388-0.964-4.998,4.789-6.158,8.195c-1.082,3.184-2.833,5.676-4.985,7.783
		c-2.855,2.791-6.411,4.906-10.048,7.055c-4.424,2.614-8.928,5.676-11.137,10.314c-2.495,5.235,0.163,10.736,5.892,12.051
		C1625.385,997.487,1634.201,991.122,1640.101,983.921z"/>
	<path style="fill:#FFFFFF;" d="M517.894,1368.105c-34.638,0-62.98,28.341-62.98,62.979v109.14h125.961v-109.14
		C580.875,1396.447,552.532,1368.105,517.894,1368.105z"/>
	<path style="fill:#FFFFFF;" d="M517.894,1639.92c-34.638,0-62.98,28.341-62.98,62.982v109.138h125.961v-109.138
		C580.875,1668.261,552.532,1639.92,517.894,1639.92z"/>
	<path style="fill:#EB7424;" d="M516.235,919.409l-8.273-140.845l-8.293,141.235c2.999-0.672,6.105-1.055,9.306-1.055
		C511.455,918.745,513.872,919,516.235,919.409z"/>
	<path style="fill:#F8AB24;" d="M516.235,919.409c-2.363-0.409-4.78-0.665-7.26-0.665c-3.201,0-6.307,0.383-9.306,1.055
		c-18.977,4.249-33.174,21.164-33.174,41.425c0,20.76,14.904,38.015,34.587,41.72c2.56,0.48,5.194,0.76,7.893,0.76
		c2.081,0,4.107-0.2,6.107-0.49c20.56-2.967,36.373-20.609,36.373-41.99C551.455,940.243,536.23,922.859,516.235,919.409z"/>
	<polygon style="fill:#823E12;" points="324.715,1851.944 324.715,1909.189 357.292,1909.189 449.714,1909.189 658.799,1909.189 
		742.595,1909.189 750.822,1909.189 1370.497,1909.189 1376.494,1909.189 1462.518,1909.189 1671.605,1909.189 1764.026,1909.189 
		1798.104,1909.189 1798.104,1851.944 1764.026,1851.944 357.292,1851.944 	"/>
	<polygon style="fill:#823E12;" points="1404.35,1145.051 1377.237,1104.048 1376.494,1104.048 1059.905,1104.048 742.595,1104.048 
		742.551,1104.048 715.438,1145.051 742.595,1145.051 1376.494,1145.051 	"/>
	<polygon style="fill:#823E12;" points="1462.314,1282.764 1435.203,1323.762 1462.518,1323.762 1764.026,1323.762 
		1791.534,1323.762 1764.421,1282.759 1764.404,1282.759 1462.316,1282.759 	"/>
	<polygon style="fill:#823E12;" points="686.156,1323.762 659.043,1282.759 659.011,1282.759 356.939,1282.759 356.929,1282.773 
		329.826,1323.762 357.292,1323.762 658.799,1323.762 	"/>
	<path style="fill:#FDC734;" d="M1063.496,352.986c41.932-1.206,75.64-35.164,76.324-77.228
		c-11.847,22.548-35.479,37.937-62.719,37.937c-39.114,0-70.818-31.708-70.818-70.821c0-11.016,2.516-21.444,7.004-30.743
		c-18.672,14.38-30.714,36.943-30.714,62.331c0,42.648,33.976,77.287,76.326,78.521c0.775,0.022,1.533,0.117,2.314,0.117
		C1061.983,353.101,1062.731,353.008,1063.496,352.986z"/>
	<path style="fill:#FFFFFF;" d="M1095.274,575.493c5.213-6.36,8.823-14.071,10.092-22.214c0.814-5.216,0.689-10.743-1.537-15.527
		c-1.167-2.507-3.101-5.143-5.99-5.659c-6.865-1.228-6.37,6.105-7.844,10.443c-1.376,4.056-3.61,7.233-6.354,9.915
		c-3.634,3.559-8.168,6.253-12.801,8.989c-5.637,3.33-11.376,7.233-14.19,13.143c-3.177,6.67,0.207,13.676,7.51,15.354
		C1076.524,592.779,1087.759,584.669,1095.274,575.493z"/>
	<path style="fill:#EB7424;" d="M1621.649,919.799l-8.292-141.235l-8.27,140.845c2.363-0.409,4.777-0.665,7.257-0.665
		C1615.544,918.745,1618.65,919.127,1621.649,919.799z"/>
	<path style="fill:#FFFFFF;" d="M511.531,983.205c-2.21-4.638-6.714-7.701-11.138-10.314c-3.637-2.148-7.194-4.263-10.049-7.055
		c-2.151-2.107-3.902-4.599-4.984-7.783c-1.159-3.406-0.77-9.159-6.158-8.195c-2.265,0.405-3.783,2.472-4.699,4.439
		c-1.749,3.756-1.846,8.095-1.208,12.187c0.996,6.392,3.83,12.444,7.922,17.438c5.9,7.201,14.716,13.566,24.421,11.335
		C511.368,993.941,514.025,988.44,511.531,983.205z"/>
	<path style="fill:#FFFFFF;" d="M815.44,925.439c18.071-15.786,40.144-27.269,62.697-38.93
		c27.435-14.185,55.505-31.028,70.338-58.117c16.743-30.575,2.66-64.477-31.284-74.326
		c-57.479-16.677-112.553,18.524-150.406,59.742c-12.994,14.148-24.21,29.968-33.228,46.943
		c-9.196,17.305-16.104,35.812-20.219,55.004c-5.218,24.35-6.115,50.419,3.106,73.552c4.828,12.109,13.235,25.042,26.699,28.243
		c32.01,7.61,31.629-27.05,39.732-47.103c3.834-9.486,8.646-17.842,14.224-25.335C802.539,937.804,808.709,931.319,815.44,925.439z"
		/>
</g>
</svg>
