<?xml version="1.0" encoding="utf-8"?>
<!-- Generator: Adobe Illustrator 27.5.0, SVG Export Plug-In . SVG Version: 6.00 Build 0)  -->
<svg version="1.1" id="Capa_1" xmlns="http://www.w3.org/2000/svg" xmlns:xlink="http://www.w3.org/1999/xlink" x="0px" y="0px"
	 viewBox="0 0 2122 2122" style="enable-background:new 0 0 2122 2122;" xml:space="preserve">
<g>
	<path style="fill:#65817C;" d="M908.212,703.1c23.791,7.705,47.216,17.021,70.129,27.605c6.28-0.772,12.424-2.114,18.324-4.193
		c12.823-23.861,27.391-47.31,36.921-72.47c3.177-8.38,5.71-16.918,7.795-25.552c-5.852-73.63-47.523-165.691-69.403-200.504
		c-15.406-24.504-34.037-48.034-59.211-63.162c-25.179-15.126-57.973-20.573-84.292-8.176
		c-26.319,12.397-42.129,45.298-29.661,71.291c-32.521-75.603-97.471-137.924-175.839-168.725
		c-43.299-17.016-98.261-22.529-131.201,8.775c-22.655,21.532-28.497,55.785-22.08,86.207c6.417,30.422,23.386,57.834,41.335,83.71
		c68.395,98.602,160.009,186.926,267.702,241.018c42.324,1.873,84.575,9.997,125.817,23.011
		C905.8,702.352,906.964,702.685,908.212,703.1z"/>
	<path style="fill:#893735;" d="M996.665,726.512c-1.841,3.432-3.635,6.877-5.389,10.334
		c39.956,19.472,78.197,42.773,113.749,68.448c21.316-23.83,44.926-45.712,70.329-65.247
		c-14.314-24.989-29.603-49.849-37.657-74.684c-25.729-79.381-16.619-165.123-18.144-248.557
		c-1.525-83.432-17.725-173.902-79.727-229.749c-19.07-17.174-41.818-30.243-66.261-38.068c-20.536-6.575-43.279-9.35-63.435-1.686
		c-20.151,7.664-36.521,27.929-34.348,49.383c2.636,26.076,28.531,42.105,49.252,58.156
		c67.937,52.641,99.488,139.747,114.796,224.319c8.926,49.306,13.208,101.045,1.55,149.33c-2.085,8.633-4.619,17.172-7.795,25.552
		C1024.055,679.202,1009.488,702.651,996.665,726.512z"/>
	<path style="fill:#D93F44;" d="M1763.797,1562.845c-26.465,18.392-56.921,30.875-88.877,35.118
		c-58.675,7.659-121.505-14.48-158.704-60.497c-43.192-53.51-47.016-130.49-27.294-196.316
		c-57.505-35.703-83.386-110.017-73.983-177.008c9.32-66.996,48.848-126.745,97.364-173.849
		c-29.622-30.375-22.217-81.722-0.58-118.173c34.285-57.922,98.533-95.785,165.525-102.694c23.552-2.412,58.422,0.916,94.538,9.988
		l-0.585-0.75c-80.72-96.867-210.962-147.298-336.788-139.228c-93.915,6.027-184.302,43.123-259.059,100.611
		c-25.403,19.535-49.013,41.418-70.329,65.247c-35.552-25.676-73.793-48.977-113.749-68.448c-4.292-2.092-8.604-4.139-12.936-6.141
		c-22.913-10.585-46.338-19.9-70.129-27.605c-1.247-0.414-2.412-0.748-3.664-1.164c-59.001,12.068-115.425,33.123-164.526,67.659
		c-125.325,88.129-181.169,254.818-159.781,406.611c21.388,151.712,110.597,287.775,223.863,390.889
		c68.239,62.163,147.133,114.84,235.844,140.224c88.711,25.384,188.16,21.306,268.55-23.966
		c43.859,51.678,110.933,74.314,177.262,75.479c61.749,1.164,122.665-15.644,176.926-44.604
		c23.215-12.317,44.77-29.13,66.489-45.939c18.558-31.542,36.039-65.91,52.098-102.446c-3.912-0.414-7.82-0.999-11.732-1.827
		C1767.626,1563.678,1765.711,1563.264,1763.797,1562.845z"/>
	<path style="fill:#FBCEA4;" d="M1677.248,769.426c-66.991,6.909-131.24,44.772-165.525,102.694
		c-21.637,36.45-29.043,87.797,0.58,118.173c-48.516,47.103-88.044,106.852-97.364,173.849
		c-9.403,66.991,16.477,141.306,73.983,177.008c-19.723,65.827-15.898,142.806,27.294,196.316
		c37.198,46.017,100.029,68.156,158.704,60.497c31.956-4.244,62.412-16.726,88.877-35.118c-4.575-0.999-9.155-2.329-13.647-3.825
		c-46.105-15.566-82.806-56.341-93.457-103.859c-10.651-47.439,5.077-99.951,40.112-133.734
		c-44.024-10.49-70.153-59.839-67.907-105.111c2.329-45.189,26.465-86.299,53.179-122.83c27.961-38.2,62.66-75.898,108.93-86.051
		c-36.697-30.624-73.315-69.489-74.48-117.34c-0.916-36.45,24.302-74.648,58.752-106.439c-1.164-1.415-2.329-2.828-3.493-4.243
		C1735.67,770.342,1700.8,767.014,1677.248,769.426z"/>
	<path style="fill:#B02933;" d="M1485.76,1758.83c-66.329-1.164-133.403-23.8-177.262-75.479
		c-80.39,45.271-179.839,49.349-268.55,23.966c-88.711-25.384-167.605-78.061-235.844-140.224
		c-113.266-103.113-202.475-239.176-223.863-390.889c-21.388-151.793,34.456-318.482,159.781-406.611
		c49.101-34.536,105.525-55.591,164.526-67.659c-41.242-13.013-83.493-21.138-125.817-23.011
		c-39.157-1.735-78.383,1.871-116.935,12.109c-132.068,35.035-236.511,144.387-287.357,271.13
		c-50.85,126.743-53.096,268.804-30.211,403.454c41.695,245.661,182.002,490.328,412.608,584.867
		c49.681,20.39,103.859,33.374,157.12,26.134c51.425-6.991,98.28-32.292,147.045-50.431
		c107.274-40.112,220.701-16.814,331.717-23.801c132.735-8.409,228.189-78.06,297.427-173.934
		c13.398-18.641,26.465-38.694,39.03-60.166c-21.72,16.808-43.274,33.622-66.489,45.939
		C1608.425,1743.186,1547.509,1759.994,1485.76,1758.83z"/>
	<path style="fill:#1F0F1C;" d="M934.268,619.073c-37.16-54.536-86.87-98.875-137.457-140.767
		c-48.078-39.82-101.384-82.787-160.16-105.447c-8.341-3.215-14.845,9.048-8.604,14.777c21.817,20.022,47.805,36.093,70.475,55.147
		c25.384,21.333,53.667,39.454,79.362,60.543c49.179,40.356,93.578,86.046,142.903,126.146
		C927.734,635.119,940.207,627.792,934.268,619.073z"/>
	<path style="fill:#EF7F88;" d="M1464.732,779.484c22.816,2.073,50.309,3.64,63.732-14.926c11.099-15.354,5.623-38.227-7.751-51.646
		c-13.369-13.42-32.487-19.274-51.084-22.867c-96.858-18.724-202.168,14.17-271.152,84.689
		c-13.145,13.442-34.641,48.17-8.083,59.827c18.704,8.207,51.299-14.368,67.177-21.854
		C1322.437,782.132,1393.614,773.024,1464.732,779.484z"/>
	<path style="fill:#D93F44;" d="M907.174,1753.749c-22.709-16.863-50.012-26.081-75.669-37.993
		c-60.536-28.112-113.393-72.551-151.478-127.361c-11.605-16.697-22.109-34.611-37.622-47.752
		c-15.513-13.14-37.768-20.726-56.487-12.784c-19.756,8.38-29.476,30.967-32.648,52.19c-6.095,40.813,4.984,82.333,20.443,120.594
		c41.126,101.744,118.436,177.617,227.635,202.221C885.24,1921.763,1003.5,1825.271,907.174,1753.749z"/>
</g>
</svg>
